<svg viewBox="1 1 511.99998 511.99998" xmlns="http://www.w3.org/2000/svg"><path d="m512 256c0 141.386719-114.613281 256-256 256s-256-114.613281-256-256 114.613281-256 256-256 256 114.613281 256 256zm0 0" fill="#7eeef6"/><path d="m232.492188 430.609375h47.015624v61.121094h-47.015624zm0 0" fill="#3b3b3b"/><path d="m503.828125 86.699219v233.675781c-4.910156 19.019531-11.972656 37.167969-20.898437 54.199219-8.316407 15.902343-18.261719 30.824219-29.609376 44.535156-6.0625 7.324219-12.519531 14.304687-19.34375 20.898437h-355.953124c-6.824219-6.59375-13.28125-13.574218-19.34375-20.898437-11.347657-13.710937-21.292969-28.632813-29.609376-44.535156-8.925781-17.03125-15.988281-35.179688-20.898437-54.199219v-233.675781c0-10.015625 8.117187-18.132813 18.128906-18.132813h459.398438c10.011719 0 18.128906 8.117188 18.128906 18.132813zm0 0" fill="#4a4a4a"/><path d="m482.929688 89.464844v285.109375c-8.316407 15.902343-18.261719 30.824219-29.609376 44.535156h-394.640624c-11.347657-13.710937-21.292969-28.632813-29.609376-44.535156v-285.109375zm0 0" fill="#fff"/><path d="m373.886719 483.296875c-35.289063 18.335937-75.371094 28.703125-117.886719 28.703125s-82.597656-10.367188-117.886719-28.703125c28.453125-5.390625 70.71875-8.808594 117.886719-8.808594 47.175781 0 89.433594 3.417969 117.886719 8.808594zm0 0" fill="#4a4a4a"/><path d="m438.859375 206.128906c0 102.140625-82.800781 184.945313-184.945313 184.945313-102.144531 0-184.949218-82.804688-184.949218-184.945313 0-102.144531 82.804687-184.949218 184.949218-184.949218 102.144532 0 184.945313 82.804687 184.945313 184.949218zm0 0" fill="#ffd861"/><g fill="#333"><path d="m228.265625 163.496094c0-25.507813-20.679687-46.183594-46.1875-46.183594s-46.183594 20.675781-46.183594 46.183594"/><path d="m371.933594 163.496094c0-25.507813-20.675782-46.183594-46.183594-46.183594s-46.1875 20.675781-46.1875 46.183594"/><path d="m368.140625 221.789062c0 26.164063-8.816406 50.269532-23.65625 69.496094-20.824219 27.011719-53.5 44.40625-90.246094 44.40625-36.738281 0-69.425781-17.394531-90.25-44.40625-14.835937-19.226562-23.65625-43.332031-23.65625-69.496094zm0 0"/></g><path d="m344.484375 291.285156c-20.824219 27.011719-53.5 44.40625-90.246094 44.40625-36.738281 0-69.425781-17.394531-90.25-44.40625 20.824219-27.019531 53.511719-44.417968 90.25-44.417968 36.746094 0 69.433594 17.398437 90.246094 44.417968zm0 0" fill="#ff7591"/></svg>